<svg xmlns="http://www.w3.org/2000/svg" width="32" height="33" viewBox="0 0 32 33" fill="none"> <g filter="url(#filter0_f_9477_7201)"> <path d="M9.95924 25.2858L10.3674 25.5276C12.0818 26.545 14.0475 27.0833 16.052 27.0842H16.0562C22.2122 27.0842 27.2221 22.0753 27.2247 15.919C27.2258 12.9357 26.0652 10.1303 23.9565 8.01998C22.9223 6.97924 21.6919 6.15397 20.3365 5.59195C18.9812 5.02992 17.5278 4.74231 16.0606 4.74576C9.89989 4.74576 4.88975 9.75407 4.88756 15.91C4.88453 18.0121 5.47648 20.0722 6.59498 21.852L6.86071 22.2742L5.73223 26.394L9.95924 25.2858ZM2.50586 29.5857L4.41235 22.6249C3.23657 20.5878 2.618 18.2768 2.61873 15.9091C2.62183 8.50231 8.64941 2.47656 16.0564 2.47656C19.6508 2.47839 23.0245 3.87717 25.5618 6.41629C28.0991 8.95542 29.4952 12.3305 29.4939 15.9199C29.4906 23.3262 23.4621 29.353 16.0562 29.353H16.0504C13.8016 29.3521 11.592 28.788 9.62923 27.7177L2.50586 29.5857Z" fill="#B3B3B3"></path> </g> <path d="M2.36719 29.447L4.27368 22.4862C3.09587 20.4442 2.47721 18.1278 2.48005 15.7705C2.48316 8.36364 8.51074 2.33789 15.9177 2.33789C19.5121 2.33972 22.8859 3.73849 25.4232 6.27762C27.9605 8.81675 29.3565 12.1918 29.3552 15.7812C29.3519 23.1875 23.3234 29.2143 15.9175 29.2143H15.9117C13.663 29.2134 11.4533 28.6493 9.49056 27.5791L2.36719 29.447Z" fill="white"></path> <path d="M15.715 3.84769C9.17146 3.84769 3.85 9.16696 3.84767 15.7051C3.84445 17.9377 4.47318 20.1257 5.66119 22.016L5.94343 22.4646L4.48888 27.2525L9.23469 25.663L9.66824 25.9199C11.4891 27.0005 13.5769 27.5719 15.7061 27.5731H15.7105C22.249 27.5731 27.5705 22.2532 27.573 15.7146C27.5779 14.1562 27.2737 12.6123 26.6778 11.1722C26.082 9.73214 25.2064 8.42458 24.1017 7.3252C23.0032 6.21981 21.6963 5.34329 20.2567 4.74637C18.8171 4.14946 17.2734 3.844 15.715 3.84769Z" fill="#25D366"></path> <path fill-rule="evenodd" clip-rule="evenodd" d="M12.0858 9.60401C11.8138 9.00922 11.5276 8.99717 11.2692 8.98687L10.5736 8.97852C10.3316 8.97852 9.93846 9.0679 9.60608 9.42544C9.27369 9.78297 8.33594 10.6471 8.33594 12.4046C8.33594 14.1622 9.63628 15.8605 9.81747 16.0991C9.99866 16.3377 12.3277 20.0594 16.0162 21.4913C19.0813 22.6813 19.705 22.4446 20.3706 22.3852C21.0361 22.3257 22.5175 21.521 22.8197 20.6869C23.1219 19.8527 23.1221 19.138 23.0315 18.9886C22.9409 18.8391 22.6989 18.7503 22.3357 18.5716C21.9725 18.3928 20.1888 17.5287 19.8562 17.4094C19.5236 17.2901 19.2818 17.2308 19.0396 17.5883C18.7975 17.9459 18.1029 18.7501 17.8911 18.9886C17.6793 19.227 17.4679 19.2569 17.1047 19.0783C16.7416 18.8998 15.5731 18.5224 14.1867 17.3054C13.108 16.3585 12.3799 15.1892 12.1679 14.8318C11.9559 14.4745 12.1454 14.2809 12.3274 14.1029C12.4902 13.9428 12.6901 13.6858 12.8719 13.4773C13.0537 13.2688 13.1135 13.1197 13.2343 12.8817C13.3551 12.6437 13.2949 12.4346 13.2041 12.256C13.1133 12.0774 12.4083 10.3105 12.0858 9.60401Z" fill="white"></path> <defs> <filter id="filter0_f_9477_7201" x="1.21611" y="1.18682" width="29.5678" height="29.6889" filterUnits="userSpaceOnUse" color-interpolation-filters="sRGB"> <feFlood flood-opacity="0" result="BackgroundImageFix"></feFlood> <feBlend mode="normal" in="SourceGraphic" in2="BackgroundImageFix" result="shape"></feBlend> <feGaussianBlur stdDeviation="0.644873" result="effect1_foregroundBlur_9477_7201"></feGaussianBlur> </filter> </defs> </svg>